<?xml version="1.0" encoding="UTF-8"?>
<svg id="Warstwa_1" data-name="Warstwa 1" xmlns="http://www.w3.org/2000/svg" viewBox="0 0 30.43 52.25">
  <defs>
    <style>
      .cls-1 {
        fill: #0b7255;
      }

      .cls-1, .cls-2, .cls-3, .cls-4, .cls-5 {
        stroke-width: 0px;
      }

      .cls-2 {
        fill: #daecdf;
      }

      .cls-3 {
        fill: #81c53c;
      }

      .cls-4 {
        fill: #84c541;
      }

      .cls-5 {
        fill: #067455;
      }
    </style>
  </defs>
  <path class="cls-5" d="M14.87,32.51c-.24,1.15-.47,2.3-.71,3.45-.1.46-.25.51-.68.23-.47,1.27-.94,2.53-1.4,3.79-.28.77-.53,1.55-.83,2.31-.18.45-.36.94-.97.99-.07,0-.14.15-.21.23-.93,1.2-1.86,2.39-2.8,3.59-.08.11-.19.2-.3.28-1.98,1.53-3.95,3.06-5.93,4.58-.15.12-.32.24-.49.28-.17.03-.36-.05-.55-.09.05-.18.03-.43.15-.53.62-.53,1.26-1.03,1.91-1.54.17-.13.34-.21.35-.49,0-.15.19-.33.33-.44.51-.39,1.05-.74,1.55-1.14.23-.18.43-.42.61-.65.33-.43.63-.88.97-1.3.46-.57.96-1.12,1.43-1.68.65-.79,1.27-1.61,1.95-2.37.86-.97,1.3-2.17,1.84-3.32.46-1,.92-2.01,1.38-3.01.17-.37.32-.74.51-1.18-.98.36-1.86.71-2.76,1-2.14.7-4.37.83-6.6.87-.12,0-.26-.03-.34-.1-.59-.49-1.22-.95-1.73-1.51-.32-.35-.53-.86-.65-1.33-.28-1.03-.38-2.1-.26-3.17.03-.28-.03-.62.39-.73.16-.04.19-.84.12-1.01-.06-.14-.1-.35-.05-.48.21-.5.47-.99.7-1.48.04-.09.12-.26.09-.29-.33-.32-.05-.58.07-.85.17-.36.36-.7.54-1.06.11-.21.34-.41.06-.67-.05-.05.02-.26.08-.37.28-.49.58-.96.86-1.44.11-.19.31-.35.13-.62-.03-.05.07-.23.15-.31,1.89-1.89,3.62-3.93,5.83-5.5,1.07-.76,1.83-1.93,2.73-2.92.04-.05.1-.14.09-.18-.22-.48.16-.71.41-.97.85-.89,1.74-1.74,2.57-2.66.86-.95,1.63-1.94,1.96-3.25.38-1.51,1.2-2.84,2.3-3.96.24-.24.51-.44.77-.66.03-.03.07-.07.1-.06.55.17.67-.3.9-.6.24-.3.38-.28.62.05-.42-.03-.5.21-.49.57,0,.47-.04.93-.06,1.4-.53.87-1.04,1.75-1.6,2.61-.46.7-.97,1.38-1.45,2.05.28.36.22.88-.14,1.01-.58.2-.84.71-1.21,1.1-.14.15-.15.44-.21.66-.05.18-.05.4-.14.55-.14.23-.35.41-.53.62-.2.24-.37.51-.6.72-.47.44-.96.85-1.42,1.24.14.17.3.28.28.35-.02.1-.16.19-.26.27-.47.37-.97.7-1.39,1.11-.59.58-1.12,1.23-1.68,1.84-.3.33-.64.64-.93.98-1.49,1.78-2.83,3.67-4.12,5.61-.83,1.25-1.74,2.44-2.34,3.83-.3.69-.7,1.35-.87,2.07-.2.83-.26,1.71-.24,2.57.01.57.23,1.14.43,1.68.07.2.36.38.59.44.79.2,1.59.25,2.4.09.48-.09.59.02.52.51.75-.17,1.5-.34,2.24-.52.08-.02.14-.12.23-.15.14-.06.28-.12.42-.14.22-.03.45,0,.68-.05,1.08-.19,1.95-.83,2.88-1.33.71-.39,1.16-1,1.38-1.74.28-.91.44-1.85.64-2.77.11-.51.17-1.02.3-1.52.12-.48.3-.94.46-1.44-1.29-.26-2.45-.62-3.47-1.31-.33-.22-.83-.35-.55-.94.06-.12.04-.28.05-.42.15.04.33.04.45.12,1.32.9,2.83,1.34,4.33,1.78.19.06.47.02.56.14.09.12-.02.38-.03.58-.08,1.33-.46,2.57-.97,3.79-.08.2-.19.39.03.6.05.05-.01.25-.07.37-.3.67-.62,1.33-.93,2-.12.11-.26.19-.36.32-.24.32-.03.67,0,1ZM5,22.9c-.1.12-.22.24-.3.38-.7,1.25-1.38,2.51-2.08,3.75-.75,1.32-1.08,2.76-1.17,4.26-.02.28-.02.28.19.28.2-.92.38-1.83.58-2.73.27-1.16.7-2.25,1.34-3.27.54-.85.98-1.76,1.47-2.64,0-.04.01-.07.02-.11-.02.03-.03.05-.05.08ZM3.26,34.27c-.75-.58-1.77-.98-1.52-2.31-.34.31-.39.56-.29.88.28.87.86,1.36,1.81,1.43Z"/>
  <path class="cls-3" d="M21.51,2.24c.02-.47.07-.94.06-1.4,0-.36.07-.6.49-.57.28-.06.37.07.38.33.04,1.38.05,2.76.14,4.14.15,2.05.38,4.1,1.32,5.97.3.59.61,1.16.82,1.79.47,1.45.92,2.91,1.47,4.34.45,1.18,1.02,2.32,1.54,3.48.03.06.05.14.1.18,1.06.83,1.38,2.07,1.81,3.25.03.09.05.21.12.25.37.18.35.54.37.85.05.61.03,1.23.07,1.84.01.21.13.42.19.63.02.07.05.17.03.23-.4,1.13-.79,2.26-1.22,3.38-.13.32-.38.6-.55.91-.07.14-.08.31-.13.46-.04.1-.09.22-.17.28-1.78,1.23-3.56,2.47-5.56,3.34-.05.02-.1.07-.15.07-.12,0-.24,0-.36-.01.06-.09.1-.22.19-.27.52-.32,1.04-.63,1.55-1.03-.13.01-.27,0-.4.04-.95.28-1.89.62-2.91.61-.15,0-.31.08-.45.15-.4.21-.8.21-1.23.08-.36-.1-.73-.37-1.08.05-.04.05-.26.02-.34-.05-.78-.62-1.74-1.02-2.18-2.01-.16-.36-.37-.68-.56-1.03-.02-.33-.23-.68,0-1,.09-.13.24-.21.36-.32.42.63.78,1.29,1.26,1.87.79.96,1.71,1.74,3.09,1.57.36-.04.73-.08,1.08-.17,1.04-.28,2.12-.47,3.08-.92,1.81-.85,3.37-2.07,4.56-3.71.01-.06.02-.12.04-.17.21-.61.43-1.23.64-1.84,0,0,0,.01,0,.01.02-.05.04-.1.06-.15.03-.04.05-.09.08-.13h0c.45-1.1.36-2.18-.21-3.24-.24.25-.38.13-.48-.15-.2-.59-.39-1.19-.6-1.78-.03-.1-.11-.19-.19-.27-.11-.11-.29-.19-.35-.32-.52-1.14-1.05-2.27-1.51-3.43-.9-2.27-1.75-4.55-2.61-6.83-.14-.37-.24-.75-.36-1.12-.06.18-.06.35-.06.51,0,.21.05.44-.24.47-.31.03-.34-.21-.37-.43-.12-.94-.03-1.92-.42-2.83-.15-.34-.13-.75-.16-1.13,0-.1.06-.21.11-.32.06-.13.18-.25.19-.38.02-.46.03-.93-.01-1.39-.09-.89-.21-1.78-.33-2.67Z"/>
  <path class="cls-2" d="M5.04,22.93c-.49.88-.93,1.79-1.47,2.64-.64,1.02-1.07,2.11-1.34,3.27-.21.9-.39,1.81-.58,2.73-.21,0-.21,0-.19-.28.1-1.5.43-2.93,1.17-4.26.7-1.24,1.38-2.5,2.08-3.75.08-.14.2-.25.3-.38.01.01.02.02.03.03Z"/>
  <path class="cls-2" d="M3.26,34.27c-.95-.07-1.54-.55-1.81-1.43-.1-.32-.05-.58.29-.88-.25,1.33.77,1.73,1.52,2.31Z"/>
  <path class="cls-2" d="M5,22.9s.03-.05.05-.08c0,.04-.01.07-.02.11,0-.01-.02-.02-.03-.03Z"/>
  <path class="cls-1" d="M28.3,29.84c-.16-.3-.14-.54.15-.77.11-.1.12-.31.19-.47.11-.26.23-.51.34-.77-.21.61-.43,1.23-.64,1.84-.02.06-.03.12-.04.17Z"/>
  <path class="cls-1" d="M28.98,27.83c.02-.05.04-.1.06-.15-.02.05-.04.1-.06.15Z"/>
  <path class="cls-1" d="M29.11,27.55s0,0,0,0,0,0,0,0Z"/>
  <path class="cls-4" d="M18.59,17.31c.74-.08,1.39-.14,2.02-.25.19-.03.35-.26.55-.34.14-.06.33-.03.49-.04-.03.17,0,.39-.11.49-.41.43-.92.67-1.52.7-.37.01-.74.02-1.11-.01-.26-.02-.4.03-.46.31-.25,1.07-.53,2.14-.81,3.21-.04.16-.19.3-.33.41-.02.02-.24-.12-.29-.22-.05-.09-.01-.24.02-.36.08-.37.2-.74.26-1.12.04-.24,0-.5,0-.75,0-.09-.02-.21.02-.27.52-.79.59-1.72.83-2.59.3-1.09.55-2.2.82-3.29.02-.07.02-.15.06-.19.1-.11.22-.2.33-.31.04.14.13.3.1.43-.24,1.22-.5,2.43-.75,3.65-.03.13-.06.26-.12.54Z"/>
  <path class="cls-4" d="M18.83,24.16c-.24-.02-.39.01-.48-.05-.12-.08-.26-.24-.25-.35,0-.1.21-.27.32-.26.94.07,1.72-.33,2.5-.77.51-.28,1.01-.58,1.53-.85.08-.04.27-.01.33.05.07.08.11.25.07.35-.04.12-.16.23-.27.29-.92.46-1.85.92-2.79,1.34-.33.15-.71.18-.95.25Z"/>
  <path class="cls-4" d="M19.02,34.31c-1.12-.12-1.98-.81-2.24-1.84-.03-.12.09-.28.13-.42.13.07.35.11.38.22.3.83.96,1.25,1.72,1.58.11.05.17.19.25.28-.1.07-.19.15-.24.18Z"/>
</svg>